<?xml version="1.0" standalone="no"?><!DOCTYPE svg PUBLIC "-//W3C//DTD SVG 1.1//EN" "http://www.w3.org/Graphics/SVG/1.1/DTD/svg11.dtd"><svg width="100%" height="100%" viewBox="0 0 800 240" version="1.1" xmlns="http://www.w3.org/2000/svg" xmlns:xlink="http://www.w3.org/1999/xlink" xml:space="preserve" style="fill-rule:evenodd;clip-rule:evenodd;stroke-linejoin:round;stroke-miterlimit:1.41421;"><rect x="-2.408" y="-0.043" width="802.408" height="240.043" style="fill:#09a73e;"/><path d="M1.21,200.217l40,40l-40,0l0,-40Z" style="fill:#00d447;"/><path d="M41.21,240.217l-40.042,-39.937l40,-0.063l0.042,40Z" style="fill:#3eeb78;"/><path d="M1.21,160.217l40,40l-40,0l0,-40Z" style="fill:#00d447;"/><path d="M41.21,200.217l-40.042,-39.937l40,-0.063l0.042,40Z" style="fill:#3eeb78;"/><path d="M1.21,160.217l40,-40l0,40l-40,0Z" style="fill:#00d447;"/><path d="M41.21,120.217l-39.936,40.042l-0.064,-40l40,-0.042Z" style="fill:#3eeb78;"/><path d="M41.168,120.217l-40,-40l40,0l0,40Z" style="fill:#00d447;"/><path d="M1.168,80.217l40.042,39.936l-40,0.064l-0.042,-40Z" style="fill:#3eeb78;"/><path d="M172.806,96.31l-40,-40l40,0l0,40Z" style="fill:#00d447;"/><path d="M132.806,56.31l40.042,39.937l-40,0.063l-0.042,-40Z" style="fill:#3eeb78;"/><path d="M374.533,230.997l-40,-40l40,0l0,40Z" style="fill:#00d447;"/><path d="M334.533,190.997l40.042,39.936l-40,0.064l-0.042,-40Z" style="fill:#3eeb78;"/><path d="M121.168,240.217l-40,-40l40,0l0,40Z" style="fill:#00d447;"/><path d="M81.168,200.217l40.042,39.936l-40,0.064l-0.042,-40Z" style="fill:#3eeb78;"/><path d="M81.168,200.259l-40,-40l40,0l0,40Z" style="fill:#00d447;"/><path d="M41.168,160.259l40.042,39.936l-40,0.064l-0.042,-40Z" style="fill:#3eeb78;"/><path d="M81.21,200.3l-40,40l0,-40l40,0Z" style="fill:#00d447;"/><path d="M41.21,240.3l39.936,-40.041l0.064,40l-40,0.041Z" style="fill:#3eeb78;"/><path d="M161.21,160.217l-40,40l0,-40l40,0Z" style="fill:#00d447;"/><path d="M121.21,200.217l39.936,-40.042l0.064,40l-40,0.042Z" style="fill:#3eeb78;"/><path d="M41.21,160.217l40,-40l0,40l-40,0Z" style="fill:#00d447;"/><path d="M81.21,120.217l-39.936,40.042l-0.064,-40l40,-0.042Z" style="fill:#3eeb78;"/><path d="M220.448,183.761l40,-40l0,40l-40,0Z" style="fill:#00d447;"/><path d="M260.448,143.761l-39.937,40.042l-0.063,-40l40,-0.042Z" style="fill:#3eeb78;"/><path d="M81.21,200.175l40,-40l0,40l-40,0Z" style="fill:#00d447;"/><path d="M121.21,160.175l-39.936,40.042l-0.064,-40l40,-0.042Z" style="fill:#3eeb78;"/><path d="M41.21,80.175l40,-40l0,40l-40,0Z" style="fill:#00d447;"/><path d="M81.21,40.175l-39.936,40.042l-0.064,-40l40,-0.042Z" style="fill:#3eeb78;"/><path d="M1.21,40.175l40,-40l0,40l-40,0Z" style="fill:#00d447;"/><path d="M41.21,0.175l-39.936,40.042l-0.064,-40l40,-0.042Z" style="fill:#3eeb78;"/><path d="M81.252,120.259l40,40l-40,0l0,-40Z" style="fill:#00d447;"/><path d="M121.252,160.259l-40.042,-39.937l40,-0.063l0.042,40Z" style="fill:#3eeb78;"/><path d="M161.21,200.217l40,40l-40,0l0,-40Z" style="fill:#00d447;"/><path d="M201.21,240.217l-40.042,-39.937l40,-0.063l0.042,40Z" style="fill:#3eeb78;"/><path d="M575.825,197.789l-49.787,26.858l11.465,-38.322l38.322,11.464Z" style="fill:#00d447;"/><path d="M526.038,224.647l49.738,-26.916l-11.404,38.34l-38.334,-11.424Z" style="fill:#3eeb78;"/><path d="M778.992,196.867l37.386,-42.454l2.534,39.92l-39.92,2.534Z" style="fill:#00d447;"/><path d="M816.378,154.413l-37.319,42.492l-2.598,-39.916l39.917,-2.576Z" style="fill:#3eeb78;"/><path d="M716.726,219.25l-46.895,-31.637l39.265,-7.629l7.63,39.266Z" style="fill:#00d447;"/><path d="M669.831,187.613l46.924,31.566l-39.254,7.692l-7.67,-39.258Z" style="fill:#3eeb78;"/><path d="M466.4,258.432l-40,-40l40,0l0,40Z" style="fill:#00d447;"/><path d="M426.4,218.432l40.042,39.937l-40,0.063l-0.042,-40Z" style="fill:#3eeb78;"/></svg>