<?xml version="1.0" standalone="no"?><!DOCTYPE svg PUBLIC "-//W3C//DTD SVG 1.1//EN" "http://www.w3.org/Graphics/SVG/1.1/DTD/svg11.dtd"><svg width="100%" height="100%" viewBox="0 0 1250 800" version="1.1" xmlns="http://www.w3.org/2000/svg" xmlns:xlink="http://www.w3.org/1999/xlink" xml:space="preserve" style="fill-rule:evenodd;clip-rule:evenodd;stroke-linejoin:round;stroke-miterlimit:1.41421;"><rect x="0" y="0" width="1250" height="800" style="fill:#43a047;"/><path d="M664.952,338.022c2.101,-1.99 4.324,-3.248 6.018,-2.525c0.777,0.332 1.285,1.409 1.617,2.63c-0.485,11.504 -1.585,20.636 -1.988,23.711c1.668,0.221 11.823,1.524 25.034,2.039c0.995,-0.331 1.748,-0.798 2.031,-1.461c0.724,-1.695 -0.662,-3.919 -2.652,-6.019l0,-0.024c-0.991,-2.095 -2.369,-4.652 -2.355,-7.507c0.03,-6.564 5.592,-11.841 12.156,-11.811c6.563,0.03 11.897,5.383 11.866,11.944c-0.013,2.892 -1.038,5.541 -2.762,7.593l0.043,0.017c-1.625,2.044 -2.737,4.224 -2.03,5.924c0.273,0.656 1.087,1.133 2.081,1.466c13.412,-0.361 23.777,-1.496 25.319,-1.672c-0.311,-2.805 -1.204,-11.502 -1.571,-22.598c0.296,-1.764 0.846,-3.639 1.914,-4.085c1.7,-0.707 3.843,0.404 5.887,2.028l0.012,-0.041c2.053,1.726 4.699,2.755 7.59,2.768c6.562,0.031 11.913,-5.298 11.944,-11.86c0.03,-6.563 -5.25,-11.804 -11.813,-11.834c-2.856,-0.014 -5.411,0.702 -7.51,2.692l-0.023,0c-2.097,0.99 -4.297,3.041 -5.993,2.316c-1.063,-0.454 -1.617,-2.384 -1.906,-4.117c0.574,-12.576 1.812,-22.08 1.976,-23.29c-0.325,0.038 -11.178,1.308 -25.511,1.694c-0.994,-0.333 -1.807,-0.811 -2.08,-1.466c-0.707,-1.7 0.405,-3.88 2.029,-5.925l-0.043,-0.016c1.725,-2.052 2.749,-4.701 2.762,-7.593c0.031,-6.561 -5.302,-11.914 -11.865,-11.944c-6.564,-0.031 -12.127,5.247 -12.157,11.811c-0.013,2.854 1.365,5.412 2.355,7.507l0,0.024c1.99,2.1 3.376,4.324 2.652,6.019c-0.283,0.663 -1.035,1.13 -2.031,1.46c-13.728,-0.534 -24.184,-1.924 -25.215,-2.062c0.029,0.214 1.471,10.838 1.929,24.973c-0.338,1.211 -0.835,2.255 -1.595,2.572c-1.7,0.708 -3.868,-0.403 -5.914,-2.027l-0.011,0.044c-2.053,-1.725 -4.698,-2.747 -7.59,-2.76c-6.562,-0.031 -11.915,5.309 -11.946,11.873c-0.03,6.563 5.25,11.985 11.814,12.015c2.856,0.014 5.409,-0.493 7.508,-2.483l0.024,0Z" style="fill:#4d4d4d;fill-opacity:0.121569;fill-rule:nonzero;"/><path d="M1008.47,351.445c1.073,0.196 10.578,1.963 22.915,5.302c1.601,0.798 3.229,1.885 3.341,3.037c0.179,1.834 -1.515,3.561 -3.666,5.04l0.035,0.025c-2.251,1.457 -4.011,3.686 -4.872,6.447c-1.952,6.264 1.574,12.944 7.84,14.897c6.265,1.952 12.984,-1.511 14.936,-7.776c0.85,-2.727 1.076,-5.329 -0.211,-7.919l0.007,-0.023c-1.288,-2.591 -1.808,-5.049 -0.619,-6.457c0.746,-0.883 2.671,-0.873 4.413,-0.64c11.857,4.233 20.539,8.191 21.65,8.702c0.058,-0.322 2.004,-11.079 5.837,-24.894c0.609,-0.854 1.294,-1.494 2,-1.563c1.833,-0.179 3.586,1.522 5.065,3.674l0.026,-0.037c1.456,2.251 3.687,4.007 6.448,4.867c6.264,1.952 12.946,-1.579 14.898,-7.844c1.953,-6.267 -1.546,-12.872 -7.812,-14.824c-2.726,-0.85 -5.359,-0.976 -7.949,0.312l-0.023,-0.007c-2.294,0.332 -5.044,1.7 -6.451,0.511c-0.551,-0.465 -0.737,-1.451 -0.761,-2.501c4.535,-12.969 8.948,-22.623 9.384,-23.568c-0.214,-0.036 -64.943,-20.087 -65.937,-20.551l-20.494,65.79Z" style="fill:#4d4d4d;fill-opacity:0.121569;fill-rule:nonzero;"/><path d="M294.285,138.09l-68.837,-3.145c0.083,1.087 0.783,10.73 0.681,23.51c-0.367,1.751 -1.005,3.602 -2.09,4.002c-1.729,0.638 -3.83,-0.562 -5.806,-2.269l-0.015,0.041c-1.98,-1.809 -4.583,-2.946 -7.472,-3.078c-6.554,-0.3 -12.122,4.803 -12.422,11.359c-0.3,6.557 4.753,12.178 11.309,12.478c2.853,0.13 5.427,-0.31 7.606,-2.213l0.024,0.001c2.18,-1.902 4.426,-3.028 6.09,-2.235c1.043,0.498 1.521,2.363 1.738,4.106c-1.089,12.543 -2.717,21.945 -2.929,23.15c0.325,-0.026 11.224,-0.871 25.56,-0.666c0.98,0.373 1.773,0.873 2.019,1.539c0.637,1.728 -0.563,3.854 -2.27,5.83l0.042,0.016c-1.809,1.98 -2.941,4.583 -3.073,7.472c-0.3,6.554 4.809,12.122 11.365,12.422c6.557,0.301 12.059,-4.758 12.359,-11.315c0.131,-2.852 -0.415,-5.431 -2.317,-7.61l0.001,-0.024c-0.903,-2.135 -2.924,-4.447 -2.13,-6.111c0.31,-0.65 1.217,-1.08 2.226,-1.369c13.695,1.098 24.153,2.919 25.178,3.101c-0.021,-0.216 2.965,-67.913 3.163,-68.992Z" style="fill:#4d4d4d;fill-opacity:0.121569;fill-rule:nonzero;"/><path d="M116.878,250.124c-1.029,0.215 -1.996,0.576 -2.353,1.203c-0.912,1.603 0.913,4.05 1.664,6.245l-0.003,0.023c1.746,2.309 2.138,4.924 1.804,7.759c-0.767,6.521 -6.611,11.173 -13.144,10.405c-6.531,-0.768 -11.235,-6.687 -10.468,-13.204c0.338,-2.871 1.66,-5.386 3.608,-7.232l-0.039,-0.018c1.847,-1.849 3.199,-3.883 2.685,-5.652c-0.199,-0.683 -0.955,-1.238 -1.908,-1.681c-13.008,-1.116 -23.239,-1.168 -25.243,-1.166c-0.033,3.574 -0.195,11.636 -0.987,21.599c-0.492,1.72 -1.261,3.521 -2.375,3.843c-1.773,0.513 -3.787,-0.835 -5.641,-2.677l-0.018,0.039c-1.85,-1.946 -4.372,-3.266 -7.249,-3.605c-6.531,-0.768 -12.459,3.924 -13.225,10.441c-0.767,6.52 3.901,12.336 10.432,13.104c2.843,0.335 5.465,-0.072 7.778,-1.813l0.025,0.003c2.315,-1.742 4.622,-2.554 6.227,-1.643c1.009,0.571 1.344,2.541 1.437,4.295c-1.982,12.434 -4.282,21.732 -4.58,22.918c0.327,-0.003 67.671,7.994 68.682,8.248c-0.004,-0.195 6.37,-55.163 7.801,-66.549c-1.127,-0.281 -11.389,-2.824 -24.91,-4.885" style="fill:#4d4d4d;fill-opacity:0.121569;fill-rule:nonzero;"/><path d="M879.587,233.112c-0.413,-0.964 -0.558,-1.832 -0.251,-2.484c0.786,-1.666 3.951,-1.458 6.176,-2.109l0.018,-0.016c2.891,0.095 5.137,-1.221 7.263,-3.126c4.889,-4.38 5.279,-11.893 0.899,-16.782c-4.379,-4.887 -11.948,-5.351 -16.835,-0.973c-2.154,1.93 -3.465,4.441 -3.854,7.094l-0.045,-0.028c-0.45,2.571 -1.342,4.842 -3.083,5.441c-0.672,0.231 -1.562,-0.068 -2.471,-0.591c-8.384,-9.973 -14.302,-18.294 -15.452,-19.931c2.902,-2.083 9.399,-6.86 17.091,-13.245c1.123,-1.391 2.153,-3.056 1.777,-4.151c-0.6,-1.741 -2.858,-2.61 -5.43,-3.062l0.022,-0.037c-2.653,-0.39 -5.181,-1.687 -7.11,-3.839c-4.379,-4.888 -3.948,-12.428 0.94,-16.807c4.888,-4.381 12.269,-3.871 16.648,1.016c1.907,2.129 3.026,4.551 2.931,7.442l0.016,0.018c-0.094,2.892 0.622,5.193 2.289,5.978c1.046,0.495 2.876,-0.39 4.364,-1.324c9.024,-8.778 15.32,-16.024 16.119,-16.949c0.186,0.268 6.446,9.225 15.673,20.198c0.909,0.523 1.807,0.811 2.48,0.582c1.741,-0.6 2.634,-2.88 3.085,-5.452l0.041,0.02c0.391,-2.652 1.69,-5.178 3.844,-7.108c4.886,-4.378 12.432,-3.942 16.811,0.945c4.381,4.89 4.039,12.456 -0.849,16.836c-2.127,1.905 -4.373,3.221 -7.264,3.126l-0.018,0.016c-2.225,0.65 -5.389,0.442 -6.176,2.108c-0.307,0.653 -0.115,1.573 0.3,2.538c9.513,9.912 17.515,16.833 18.303,17.512c-0.162,0.109 -41.451,36.95 -49.936,44.675c-0.879,-0.755 -8.864,-7.684 -18.316,-17.531" style="fill:#4d4d4d;fill-opacity:0.121569;fill-rule:nonzero;"/><path d="M55.384,764.218c-0.414,-0.964 -0.559,-1.832 -0.252,-2.484c0.787,-1.666 3.951,-1.458 6.176,-2.109l0.018,-0.016c2.891,0.095 5.137,-1.221 7.264,-3.126c4.888,-4.38 5.278,-11.893 0.898,-16.782c-4.379,-4.887 -11.948,-5.351 -16.835,-0.973c-2.153,1.93 -3.465,4.441 -3.854,7.094l-0.045,-0.028c-0.45,2.571 -1.341,4.842 -3.082,5.441c-0.673,0.231 -1.562,-0.068 -2.471,-0.591c-8.385,-9.973 -14.302,-18.294 -15.453,-19.931c2.902,-2.083 9.4,-6.86 17.091,-13.245c1.123,-1.391 2.153,-3.056 1.777,-4.151c-0.6,-1.741 -2.857,-2.61 -5.429,-3.062l0.021,-0.037c-2.653,-0.39 -5.181,-1.687 -7.109,-3.839c-4.38,-4.888 -3.948,-12.428 0.939,-16.807c4.889,-4.381 12.27,-3.871 16.648,1.016c1.908,2.129 3.027,4.551 2.931,7.442l0.016,0.018c-0.093,2.892 0.622,5.193 2.289,5.978c1.046,0.495 2.877,-0.39 4.364,-1.324c9.024,-8.778 15.32,-16.024 16.119,-16.949c0.186,0.268 6.446,9.225 15.673,20.198c0.909,0.523 1.807,0.811 2.48,0.582c1.741,-0.6 2.635,-2.88 3.085,-5.452l0.042,0.02c0.39,-2.652 1.689,-5.178 3.843,-7.108c4.887,-4.378 12.432,-3.942 16.811,0.945c4.381,4.89 4.039,12.456 -0.849,16.836c-2.126,1.905 -4.373,3.22 -7.264,3.126l-0.018,0.016c-2.224,0.65 -5.389,0.442 -6.176,2.108c-0.307,0.653 -0.114,1.573 0.3,2.538c9.514,9.912 17.515,16.833 18.304,17.512c-0.163,0.109 -41.451,36.95 -49.937,44.675c-0.879,-0.755 -8.864,-7.684 -18.315,-17.531" style="fill:#4d4d4d;fill-opacity:0.121569;fill-rule:nonzero;"/><path d="M225.771,612.655c-1.028,0.209 -1.907,0.175 -2.484,-0.258c-1.472,-1.109 -0.625,-4.165 -0.81,-6.476l-0.012,-0.02c0.68,-2.812 -0.152,-5.279 -1.586,-7.748c-3.296,-5.676 -10.574,-7.583 -16.25,-4.287c-5.675,3.295 -7.666,10.612 -4.371,16.286c1.452,2.501 3.644,4.295 6.162,5.214l-0.036,0.039c2.426,0.963 4.468,2.297 4.702,4.123c0.09,0.706 -0.383,1.516 -1.08,2.3c-11.468,6.184 -20.817,10.289 -22.654,11.082c-1.45,-3.264 -4.809,-10.596 -9.499,-19.424c-1.134,-1.382 -2.554,-2.729 -3.704,-2.583c-1.826,0.234 -3.135,2.268 -4.1,4.695l-0.032,-0.029c-0.92,2.519 -2.704,4.73 -5.203,6.182c-5.675,3.295 -12.971,1.342 -16.266,-4.333c-3.296,-5.676 -1.298,-12.8 4.376,-16.095c2.472,-1.435 5.071,-2.039 7.882,-1.359l0.021,-0.012c2.813,0.679 5.211,0.446 6.319,-1.027c0.697,-0.924 0.202,-2.896 -0.411,-4.542c-6.763,-10.619 -12.579,-18.255 -13.323,-19.225c0.301,-0.128 10.342,-4.439 22.961,-11.245c0.696,-0.783 1.161,-1.605 1.073,-2.31c-0.234,-1.826 -2.285,-3.164 -4.712,-4.128l0.028,-0.036c-2.518,-0.921 -4.727,-2.706 -6.179,-5.207c-3.295,-5.674 -1.335,-12.974 4.339,-16.269c5.677,-3.297 13.017,-1.425 16.312,4.25c1.434,2.469 2.266,4.936 1.586,7.748l0.012,0.02c0.185,2.311 -0.661,5.367 0.811,6.476c0.576,0.433 1.517,0.432 2.545,0.222c11.638,-7.303 20.04,-13.732 20.865,-14.366c0.074,0.181 27.762,48.091 33.603,57.969c-0.918,0.706 -9.324,7.118 -20.885,14.373" style="fill:#4d4d4d;fill-opacity:0.121569;fill-rule:nonzero;"/><path d="M921.358,474.223c-0.136,-0.841 -0.225,-1.481 -0.225,-1.481l-0.139,0.007c0,0 -11.16,2.316 -25.96,3.541c-1.119,-0.272 -2.066,-0.616 -2.399,-1.308c-0.798,-1.659 0.202,-3.819 1.712,-5.948l-0.033,0.009c1.612,-2.142 2.511,-4.831 2.368,-7.718c-0.325,-6.554 -5.907,-11.606 -12.462,-11.281c-6.555,0.325 -11.517,5.884 -11.192,12.44c0.141,2.852 1.032,5.365 3.133,7.353l0.001,0.024c2.101,1.989 3.228,4.128 2.598,5.86c-0.256,0.702 -1.174,1.044 -2.22,1.428c-14.06,0.152 -24.645,-0.975 -24.645,-0.975l-0.091,0.005c0,0 -1.023,11.634 -0.763,26.604c0.309,0.537 0.68,1.031 1.123,1.193c1.73,0.63 3.829,-0.538 5.797,-2.252l0.018,0.049c1.972,-1.815 4.57,-2.976 7.457,-3.119c6.554,-0.325 12.138,4.713 12.463,11.268c0.325,6.554 -4.713,12.055 -11.268,12.38c-2.852,0.142 -5.439,-0.532 -7.626,-2.426l-0.026,0.001c-2.185,-1.894 -4.424,-2.768 -6.085,-1.968c-0.445,0.214 -0.77,0.935 -1.03,1.546c1.217,15.008 3.406,26.638 3.406,26.638l0.091,-0.005c0,0 9.933,0.668 23.397,0.581c1.772,-0.349 3.664,-1.085 4.067,-2.188c0.63,-1.732 -0.581,-3.791 -2.296,-5.762l0.026,-0.043c-1.815,-1.973 -2.988,-4.585 -3.131,-7.472c-0.325,-6.554 4.706,-12.144 11.26,-12.469c6.556,-0.325 12.009,4.712 12.334,11.266c0.142,2.854 -0.579,5.439 -2.473,7.626l0.001,0.024c-0.895,2.138 -2.728,4.331 -1.928,5.991c0.523,1.089 2.637,1.524 4.497,1.693c13.441,-1.244 23.3,-3.124 23.3,-3.124c0,0 0.061,-0.749 0.142,-1.939" style="fill:#4d4d4d;fill-opacity:0.121569;fill-rule:nonzero;"/><path d="M832.512,646.281c0,0 4.362,10.53 8.332,24.84c-0.059,1.151 -0.219,2.145 -0.837,2.602c-1.48,1.094 -3.789,0.515 -6.163,-0.571l0.015,0.032c-2.406,-1.183 -5.215,-1.564 -8.025,-0.883c-6.378,1.544 -10.297,7.972 -8.752,14.351c1.544,6.378 7.933,10.213 14.313,8.668c2.775,-0.671 5.077,-2.016 6.638,-4.452l0.023,-0.005c1.562,-2.436 3.452,-3.944 5.271,-3.648c0.738,0.12 1.245,0.958 1.818,1.913c2.777,13.785 3.65,24.394 3.65,24.394l0.021,0.088c0,0 11.62,-1.17 26.278,-4.224c0.47,-0.404 0.885,-0.861 0.962,-1.326c0.296,-1.817 -1.245,-3.661 -3.296,-5.274l0.045,-0.027c-2.152,-1.598 -3.778,-3.933 -4.458,-6.743c-1.545,-6.377 2.361,-12.804 8.739,-14.349c6.378,-1.544 12.724,2.377 14.269,8.755c0.671,2.775 0.493,5.443 -0.959,7.945l0.007,0.025c-1.453,2.501 -1.893,4.864 -0.796,6.346c0.293,0.397 1.063,0.582 1.711,0.723c14.516,-4.002 25.532,-8.326 25.532,-8.326l-0.022,-0.088c0,0 -1.2,-9.883 -3.804,-23.094c-0.673,-1.675 -1.75,-3.396 -2.909,-3.585c-1.819,-0.296 -3.616,1.278 -5.231,3.332l-0.047,-0.017c-1.599,2.152 -3.946,3.792 -6.756,4.472c-6.377,1.545 -12.809,-2.353 -14.354,-8.731c-1.544,-6.379 2.384,-12.678 8.762,-14.222c2.777,-0.673 5.452,-0.448 7.954,1.004l0.023,-0.006c2.268,0.48 4.765,1.87 6.246,0.774c0.972,-0.717 1.004,-2.875 0.823,-4.734c-3.735,-12.972 -7.426,-22.305 -7.426,-22.305l-67.597,16.346Z" style="fill:#4d4d4d;fill-opacity:0.121569;fill-rule:nonzero;"/><path d="M447.471,167.688l-18.482,66.69l66.648,18.556l0.089,0.025c0,0 4.596,-10.551 9.073,-24.84c-0.123,-0.606 -0.344,-1.11 -0.712,-1.402c-1.443,-1.145 -3.813,-0.658 -6.224,0.348l-0.005,-0.032c-2.446,1.1 -5.28,1.393 -8.065,0.617c-6.321,-1.76 -10.03,-8.298 -8.27,-14.62c1.761,-6.322 8.186,-9.632 14.511,-7.871c2.75,0.766 4.904,2.539 6.381,5.027l0.024,0.007c1.745,1.523 3.412,3.705 5.242,3.472c0.49,-0.063 0.982,-0.487 1.421,-0.985c3.582,-14.624 5.132,-26.193 5.132,-26.193l-0.089,-0.024c0,0 -9.127,-4.085 -21.93,-8.25c-1.792,-0.23 -3.774,-0.286 -4.505,0.634c-1.144,1.443 -0.623,3.701 0.382,6.111l-0.026,-0.006c1.099,2.445 1.392,5.273 0.617,8.059c-1.76,6.321 -8.295,10.029 -14.617,8.268c-6.324,-1.76 -10.313,-8.379 -8.553,-14.701c0.766,-2.752 2.823,-4.828 4.348,-6.574l0.006,-0.023c2.487,-1.477 4.362,-3.136 4.127,-4.963c-0.153,-1.199 -1.818,-2.222 -3.528,-2.969c-13.147,-3.062 -22.995,-4.361 -22.995,-4.361Z" style="fill:#4d4d4d;fill-opacity:0.121569;fill-rule:nonzero;"/><path d="M1152.29,683.443l-0.05,-0.13l-24.97,-64.52l-0.033,-0.085c0,0 -11.206,2.623 -25.336,7.577c-0.413,0.461 -0.685,0.939 -0.699,1.409c-0.055,1.841 1.753,3.45 4.001,4.781l-0.024,0.023c2.345,1.303 4.273,3.4 5.317,6.096c2.368,6.12 -0.656,13.001 -6.776,15.37c-6.12,2.368 -12.615,-0.803 -14.984,-6.926c-1.031,-2.663 -0.897,-5.45 0.214,-8.121l-0.009,-0.023c0.178,-2.31 0.931,-4.951 -0.35,-6.278c-0.343,-0.355 -0.977,-0.497 -1.639,-0.55c-13.865,5.871 -24.064,11.545 -24.064,11.545l0.033,0.086c0,0 2.182,9.758 6.498,22.511c0.886,1.574 2.027,3.197 3.201,3.233c1.841,0.054 3.339,-1.713 4.67,-3.96l0.011,0.025c1.303,-2.343 3.395,-4.269 6.092,-5.313c6.118,-2.368 12.998,0.654 15.366,6.774c2.37,6.122 -0.551,13.277 -6.672,15.645c-2.663,1.031 -5.558,0.623 -7.869,0.445l-0.022,0.009c-2.671,-1.111 -5.122,-1.622 -6.445,-0.341c-0.87,0.84 -0.695,2.786 -0.271,4.603c5.405,12.369 10.252,21.04 10.252,21.04l64.558,-24.925Z" style="fill:#4d4d4d;fill-opacity:0.121569;fill-rule:nonzero;"/><path d="M1177.96,134.95l-68.908,7.99c0,0 -0.278,10.517 0.838,24.526c0.468,1.676 1.153,3.367 2.232,3.679c1.768,0.515 3.662,-0.832 5.513,-2.675l0.005,0.029c1.847,-1.943 4.355,-3.277 7.226,-3.613c6.518,-0.764 12.426,3.902 13.19,10.42c0.764,6.52 -3.866,12.598 -10.386,13.362c-2.836,0.332 -5.544,-0.861 -7.738,-1.611l-0.023,0.003c-2.309,-1.743 -4.546,-2.777 -6.149,-1.867c-0.949,0.538 -1.297,2.189 -1.387,3.88c2.066,13.114 4.396,22.519 4.396,22.519l0.137,-0.016c0,0 12.163,0.145 27.714,-1.285c0.326,-0.275 0.56,-0.575 0.658,-0.912c0.513,-1.767 -0.836,-3.776 -2.678,-5.625l0.033,-0.018c-1.944,-1.848 -3.276,-4.362 -3.613,-7.232c-0.763,-6.518 3.905,-12.429 10.423,-13.192c6.518,-0.764 12.294,3.901 13.057,10.419c0.332,2.835 -0.17,5.463 -1.913,7.771l0.003,0.026c-0.75,2.191 -2.463,4.6 -1.554,6.203c0.17,0.3 0.531,0.526 0.904,0.718c14.643,-2.172 25.68,-4.924 25.68,-4.924l0.091,-0.011c0,0 0.262,-11.489 -1.002,-26.409c-0.342,-0.513 -0.736,-0.888 -1.188,-1.02c-1.769,-0.513 -3.778,0.839 -5.628,2.683l-0.018,-0.026c-1.846,1.944 -4.359,3.288 -7.231,3.625c-6.517,0.764 -12.426,-3.882 -13.19,-10.4c-0.764,-6.519 3.874,-12.529 10.392,-13.292c2.837,-0.333 5.558,0.973 7.75,1.723l0.024,-0.002c2.31,1.743 4.623,2.652 6.226,1.743c0.43,-0.243 0.755,-0.583 0.973,-1.209c-2.223,-14.893 -5.137,-25.947 -5.137,-25.947l0.278,-0.033Z" style="fill:#4d4d4d;fill-opacity:0.121569;fill-rule:nonzero;"/><path d="M309.687,685.976c0,0 -0.278,10.518 0.838,24.526c0.468,1.676 1.153,3.368 2.231,3.68c1.769,0.514 3.663,-0.832 5.514,-2.675l0.005,0.029c1.846,-1.943 4.355,-3.277 7.226,-3.614c6.518,-0.764 12.426,3.903 13.19,10.421c0.764,6.519 -3.866,12.598 -10.386,13.361c-2.836,0.333 -5.545,-0.86 -7.738,-1.61l-0.024,0.003c-2.308,-1.743 -4.545,-2.777 -6.148,-1.867c-0.949,0.538 -1.297,2.188 -1.388,3.879c2.067,13.115 4.397,22.52 4.397,22.52l0.137,-0.016c0,0 12.162,0.144 27.714,-1.285c0.326,-0.275 0.56,-0.575 0.658,-0.912c0.513,-1.768 -0.836,-3.776 -2.678,-5.625l0.032,-0.018c-1.943,-1.848 -3.275,-4.362 -3.612,-7.232c-0.763,-6.519 3.904,-12.429 10.423,-13.193c6.518,-0.763 12.293,3.902 13.057,10.42c0.332,2.835 -0.17,5.463 -1.914,7.771l0.003,0.026c-0.75,2.191 -2.462,4.6 -1.553,6.203c0.17,0.3 0.531,0.526 0.903,0.718c14.644,-2.172 25.681,-4.924 25.681,-4.924l0.091,-0.011c0,0 0.262,-11.49 -1.002,-26.409c-0.342,-0.514 -0.736,-0.888 -1.189,-1.02c-1.768,-0.513 -3.778,0.839 -5.628,2.683l-0.017,-0.026c-1.846,1.944 -4.359,3.288 -7.231,3.625c-6.517,0.763 -12.426,-3.883 -13.19,-10.4c-0.764,-6.519 3.873,-12.529 10.392,-13.293c2.836,-0.332 5.558,0.974 7.75,1.724l0.024,-0.003c2.309,1.743 4.623,2.652 6.226,1.744c0.43,-0.243 0.754,-0.583 0.973,-1.209c-2.223,-14.893 -5.137,-25.947 -5.137,-25.947l-68.63,7.956Z" style="fill:#4d4d4d;fill-opacity:0.121569;fill-rule:nonzero;"/><path d="M263.436,404.574l59.193,-35.22c0,0 7.733,9.766 15.115,21.327c0.056,0.662 -0.02,1.242 -0.313,1.641c-1.093,1.482 -3.5,1.725 -6.319,1.075l-0.021,0.012c-2.819,-0.649 -5.394,0.012 -7.848,1.472c-5.64,3.355 -7.495,10.613 -4.138,16.254c3.355,5.64 10.646,7.475 16.286,4.119c2.485,-1.479 4.231,-3.729 5.124,-6.256l0.027,0.015c0.939,-2.435 2.222,-4.489 4.046,-4.742c0.466,-0.064 0.981,0.121 1.504,0.452c6.592,11.934 10.82,21.707 11.531,23.37c-0.11,-0.139 -0.223,-0.301 -0.223,-0.301l-0.079,0.047c0,0 -8.99,3.876 -20.692,10.154c-1.439,1.18 -2.881,2.751 -2.712,3.984c0.253,1.825 2.491,3.101 5.278,3.874l0.013,0.022c2.787,0.773 4.535,2.701 5.995,5.155c3.356,5.641 1.423,12.963 -4.217,16.319c-5.64,3.356 -12.974,1.52 -16.329,-4.119c-1.478,-2.485 -1.965,-5.282 -1.544,-7.93l-0.045,0.01c0.339,-2.589 0.185,-5.001 -1.299,-6.095c-0.995,-0.731 -2.991,-0.186 -4.727,0.532c-10.378,6.801 -17.982,12.745 -18.75,13.411l-34.856,-58.582Z" style="fill:#4d4d4d;fill-opacity:0.121569;fill-rule:nonzero;"/><path d="M606.514,568.827c0,0 35.376,59.116 35.539,59.046c-1.422,1.131 -9.958,7.832 -21.506,15.235c-0.661,0.058 -1.241,-0.017 -1.641,-0.31c-1.484,-1.09 -1.732,-3.496 -1.087,-6.316l-0.012,-0.021c0.644,-2.821 -0.022,-5.395 -1.486,-7.845c-3.367,-5.634 -10.628,-7.475 -16.263,-4.108c-5.633,3.366 -7.454,10.66 -4.088,16.294c1.484,2.482 3.737,4.224 6.266,5.113l-0.015,0.026c2.437,0.934 4.493,2.214 4.749,4.038c0.065,0.465 -0.118,0.98 -0.449,1.504c-11.921,6.615 -21.686,10.861 -23.348,11.576c0.139,-0.111 0.301,-0.224 0.301,-0.224l-0.047,-0.079c0,0 -3.893,-8.982 -10.193,-20.673c-1.183,-1.436 -2.757,-2.876 -3.99,-2.704c-1.825,0.256 -3.095,2.496 -3.864,5.285l-0.021,0.013c-0.768,2.789 -2.693,4.54 -5.144,6.005c-5.635,3.367 -12.961,1.447 -16.327,-4.187c-3.367,-5.633 -1.544,-12.97 4.088,-16.336c2.482,-1.483 5.278,-1.975 7.927,-1.559l-0.01,-0.045c2.59,0.334 5.002,0.175 6.092,-1.311c0.729,-0.996 0.181,-2.991 -0.541,-4.725c-6.821,-10.366 -12.779,-17.959 -13.446,-18.725l58.516,-34.967Z" style="fill:#4d4d4d;fill-opacity:0.121569;fill-rule:nonzero;"/><path d="M1186.24,474.246c-1.54,-0.808 -3.294,-1.432 -4.263,-0.863c-1.586,0.936 -1.928,3.248 -1.858,5.857l-0.035,-0.008c0.148,2.677 -0.608,5.42 -2.333,7.74c-3.846,5.172 -11.097,6.313 -16.344,2.642c-5.066,-3.959 -6.078,-11.262 -2.221,-16.449c1.725,-2.32 4.134,-3.833 6.74,-4.463l-0.019,-0.03c2.519,-0.684 4.635,-1.677 5.073,-3.465c0.267,-1.092 -0.838,-2.589 -2.055,-3.831c-5.508,-3.786 -10.145,-6.673 -13.51,-8.672c-3.6,-2.2 -5.793,-3.433 -5.793,-3.433l-0.082,0.11c0,0 -5.93,10.446 -14.814,23.127c-0.511,0.235 -1.077,0.279 -1.502,0.175c-1.789,-0.438 -2.896,-2.64 -3.58,-5.159l-0.051,0.003c-0.629,-2.606 -2.153,-5.023 -4.474,-6.748c-5.266,-3.916 -12.722,-2.825 -16.638,2.442c-3.917,5.267 -2.955,12.858 2.312,16.774c2.291,1.704 5.219,2.038 7.493,2.482l-0.372,-0.072c3.467,0.117 5.801,-0.012 6.737,1.577c0.217,0.369 0.477,0.896 0.406,1.443c-9.113,11.415 -16.735,19.393 -16.794,19.471l-0.001,0.002l-0.002,0.002l-0.055,0.074c0,0 2.86,2.835 7.657,7.101c3.122,2.804 7.099,6.229 11.737,9.91c0.011,0.003 0.023,0.004 0.035,0.005c0.107,0.087 0.213,0.171 0.32,0.258c0.61,0.104 1.076,0.016 1.482,-0.223c1.587,-0.934 1.941,-3.352 1.87,-5.963l0.011,-0.01c-0.148,-2.677 0.589,-5.435 2.314,-7.754c3.872,-5.207 11.175,-6.347 16.43,-2.586c5.075,3.958 6.071,11.25 2.21,16.442c-1.724,2.319 -4.154,3.819 -6.759,4.449l-0.006,0.013c-2.522,0.683 -4.735,1.72 -5.173,3.509c-0.112,0.457 -0.061,0.928 0.214,1.482c0.109,0.076 0.22,0.151 0.33,0.227c0.007,0.014 0.013,0.029 0.02,0.043c4.024,2.799 7.828,5.286 11.134,7.37c0.01,-0.017 0.021,-0.033 0.03,-0.05c6.428,4.019 10.715,6.348 10.715,6.348l0.055,-0.074c0,0 5.467,-9.625 13.813,-21.692c0.503,-0.226 1.082,-0.128 1.498,-0.026c1.791,0.439 2.77,2.796 3.254,5.649l0.019,0.014c1.081,2.05 2.245,4.756 4.536,6.459c5.267,3.916 12.814,2.65 16.731,-2.617c3.916,-5.267 2.813,-12.721 -2.453,-16.637c-2.321,-1.725 -5.074,-2.489 -7.751,-2.341l-0.012,-0.05c-2.609,0.07 -5.037,-0.355 -5.972,-1.943c-0.221,-0.376 -0.343,-0.931 -0.264,-1.488c9.585,-12.16 17.881,-20.847 17.881,-20.847l0.082,-0.11c0,0 -4.143,-3.896 -10.42,-9.258c-2.291,-1.956 -4.862,-4.105 -7.624,-6.333c2.762,2.228 5.333,4.377 7.624,6.333c0.015,-0.017 0.028,-0.033 0.044,-0.05c-2.266,-1.942 -4.813,-4.068 -7.577,-6.288" style="fill:#4b4b4b;fill-opacity:0.121569;fill-rule:nonzero;"/></svg>