<?xml version="1.0" standalone="no"?><!DOCTYPE svg PUBLIC "-//W3C//DTD SVG 1.1//EN" "http://www.w3.org/Graphics/SVG/1.1/DTD/svg11.dtd"><svg width="100%" height="100%" viewBox="0 0 94 88" version="1.1" xmlns="http://www.w3.org/2000/svg" xmlns:xlink="http://www.w3.org/1999/xlink" xml:space="preserve" style="fill-rule:evenodd;clip-rule:evenodd;stroke-linejoin:round;stroke-miterlimit:1.41421;"><path d="M93.856,64.299c-0.335,-0.922 -0.806,-1.743 -1.47,-2.002c-1.698,-0.665 -3.916,1.303 -6.007,2.23l-0.024,0c-2.09,1.853 -4.641,2.467 -7.496,2.467c-6.564,0 -11.868,-4.878 -11.868,-10.961c0,-6.08 5.328,-11.047 11.889,-11.047c2.892,0 5.544,0.938 7.604,2.528l0.015,-0.039c2.051,1.496 4.23,2.517 5.927,1.854c0.655,-0.257 1.118,-1.011 1.446,-1.934c-0.411,-12.068 -1.555,-21.469 -1.791,-23.309c-3.553,0.356 -11.579,1.077 -21.568,1.427c-1.765,-0.266 -3.643,-0.778 -4.094,-1.766c-0.715,-1.573 0.387,-3.568 2.001,-5.47l-0.041,-0.013c1.716,-1.909 2.733,-4.367 2.733,-7.046c0,-6.081 -5.353,-11.018 -11.915,-11.018c-6.564,0 -11.947,4.916 -11.947,10.997c0,2.647 0.557,5.011 2.557,6.947l0,0.023c2,1.938 3.229,3.969 2.512,5.542c-0.449,0.987 -2.291,1.508 -4.023,1.783c-12.579,-0.477 -22.045,-1.584 -23.258,-1.73c0.041,0.3 1.382,10.354 1.834,23.633c-0.329,0.923 -0.791,1.677 -1.446,1.934c-1.697,0.663 -3.876,-0.358 -5.927,-1.854l-0.015,0.039c-2.06,-1.59 -4.712,-2.528 -7.604,-2.528c-6.561,0 -11.889,4.967 -11.889,11.047c0,6.083 5.304,10.961 11.868,10.961c2.855,0 5.406,-0.614 7.496,-2.467l0.024,0c2.091,-0.927 4.309,-2.895 6.007,-2.23c0.664,0.259 1.135,1.08 1.47,2.002c-0.471,12.723 -1.812,22.482 -1.946,23.438c0.194,-0.025 55.529,-0.114 67.004,-0.029c0.149,-1.066 1.474,-10.769 1.942,-23.409" style="fill:#000;fill-rule:nonzero;"/></svg>